<svg xmlns="http://www.w3.org/2000/svg" xmlns:xlink="http://www.w3.org/1999/xlink" width="500" zoomAndPan="magnify" viewBox="0 0 375 374.999991" height="500" preserveAspectRatio="xMidYMid meet" version="1.0"><defs><g/><clipPath id="a91a772c09"><path d="M 51.015625 18.058594 L 323.984375 18.058594 L 323.984375 356.941406 L 51.015625 356.941406 Z M 51.015625 18.058594 " clip-rule="nonzero"/></clipPath><clipPath id="966cb154d2"><path d="M 142.054688 25.9375 C 156.003906 21.179688 171.957031 18.058594 187.574219 18.058594 C 203.1875 18.058594 218.214844 20.734375 232.0625 25.492188 C 232.355469 25.640625 232.652344 25.640625 232.945312 25.789062 C 284.945312 44.828125 323.246094 95.09375 323.984375 153.902344 L 323.984375 356.941406 L 51.015625 356.941406 L 51.015625 154.054688 C 51.753906 94.796875 89.464844 44.527344 142.054688 25.9375 Z M 142.054688 25.9375 " clip-rule="nonzero"/></clipPath><clipPath id="f6e7580ba5"><path d="M 51.015625 76.425781 L 324.183594 76.425781 L 324.183594 280.746094 L 51.015625 280.746094 Z M 51.015625 76.425781 " clip-rule="nonzero"/></clipPath><clipPath id="22834c8e26"><path d="M 79.269531 87.5625 L 133.679688 87.5625 L 133.679688 139.75 L 79.269531 139.75 Z M 79.269531 87.5625 " clip-rule="nonzero"/></clipPath><clipPath id="30d44069ba"><path d="M 159.585938 35.359375 L 213.996094 35.359375 L 213.996094 87.550781 L 159.585938 87.550781 Z M 159.585938 35.359375 " clip-rule="nonzero"/></clipPath><clipPath id="6387f99812"><path d="M 240.835938 87.5625 L 295.246094 87.5625 L 295.246094 139.75 L 240.835938 139.75 Z M 240.835938 87.5625 " clip-rule="nonzero"/></clipPath></defs><g clip-path="url(#a91a772c09)"><g clip-path="url(#966cb154d2)"><path fill="#262626" d="M 51.015625 18.058594 L 323.984375 18.058594 L 323.984375 356.941406 L 51.015625 356.941406 Z M 51.015625 18.058594 " fill-opacity="1" fill-rule="nonzero"/></g></g><g clip-path="url(#f6e7580ba5)"><path fill="#fafcfd" d="M 458.253906 187.234375 C 471.003906 184.136719 483.636719 180.558594 498.414062 176.628906 C 498.542969 176.589844 498.640625 176.75 498.546875 176.851562 C 451.910156 227.339844 396.140625 253.960938 329.835938 260.007812 C 329.691406 260.023438 329.675781 260.226562 329.8125 260.265625 C 345.34375 264.550781 360.914062 268.839844 378.289062 273.636719 C 378.417969 273.667969 378.429688 273.84375 378.308594 273.894531 C 345.003906 287.265625 312.015625 288.828125 278.105469 288.449219 C 277.960938 288.449219 277.917969 288.648438 278.050781 288.699219 C 287.851562 293.003906 297.652344 297.300781 307.460938 301.597656 C 307.503906 301.621094 307.539062 301.664062 307.539062 301.722656 C 307.5625 302.617188 307.578125 303.503906 307.601562 304.394531 C 307.601562 304.464844 307.542969 304.527344 307.472656 304.53125 C 286.308594 305.644531 265.140625 306.769531 243.445312 307.917969 C 243.324219 307.925781 243.269531 308.082031 243.367188 308.160156 C 247.9375 311.648438 252.550781 315.167969 257.160156 318.679688 C 256.820312 319.691406 256.824219 319.667969 256.488281 320.679688 L 227.050781 320.679688 C 226.957031 320.679688 226.898438 320.777344 226.929688 320.867188 C 228.957031 325.851562 230.496094 329.628906 232.664062 334.9375 C 232.707031 335.046875 232.597656 335.15625 232.484375 335.117188 C 228.316406 333.605469 225.085938 332.4375 221.222656 331.035156 C 221.140625 331.007812 221.054688 331.050781 221.035156 331.136719 C 218.058594 345.816406 221.875 359.269531 229.363281 371.304688 C 236.703125 383.101562 245.761719 393.832031 255.167969 406.480469 C 255.238281 406.582031 255.15625 406.71875 255.03125 406.695312 C 244.691406 404.96875 234.972656 403.332031 225.0625 401.667969 C 224.984375 401.65625 224.910156 401.71875 224.910156 401.800781 L 224.910156 437.027344 C 224.910156 437.117188 224.832031 437.175781 224.746094 437.160156 C 211.183594 434.660156 205.054688 424.925781 200.664062 414.671875 C 200.617188 414.5625 200.457031 414.566406 200.421875 414.6875 C 197.035156 425.957031 193.582031 437.445312 190.136719 448.929688 C 190.121094 448.992188 190.0625 449.03125 190 449.03125 C 188.960938 448.949219 187.929688 448.867188 186.894531 448.789062 C 186.859375 448.785156 186.824219 448.765625 186.804688 448.742188 C 177.980469 438.742188 176.183594 426.199219 175.476562 410.839844 C 175.46875 410.695312 175.273438 410.664062 175.21875 410.800781 C 169.875 424.34375 163.65625 434.132812 149.863281 437.371094 C 149.78125 437.390625 149.695312 437.328125 149.695312 437.242188 L 149.695312 401.730469 C 149.695312 401.648438 149.617188 401.582031 149.539062 401.597656 C 139.199219 403.421875 129.566406 405.117188 119.941406 406.8125 C 119.894531 406.816406 119.84375 406.800781 119.816406 406.761719 C 119.371094 406.207031 118.929688 405.660156 118.484375 405.097656 C 118.441406 405.042969 118.445312 404.96875 118.496094 404.921875 C 139.042969 384.632812 156.28125 362.824219 154.207031 331.003906 C 154.203125 330.914062 154.109375 330.855469 154.023438 330.882812 C 149.917969 332.34375 146.550781 333.539062 141.972656 335.167969 C 141.863281 335.207031 141.753906 335.09375 141.800781 334.980469 C 143.796875 330.222656 145.390625 326.429688 147.65625 321.035156 C 147.691406 320.941406 147.628906 320.84375 147.527344 320.84375 L 117.683594 320.84375 C 115.652344 320.9375 114.753906 320.433594 117.226562 318.703125 C 121.875 315.171875 126.519531 311.648438 131.257812 308.046875 C 131.359375 307.976562 131.308594 307.820312 131.183594 307.8125 C 109.378906 306.761719 88.117188 305.734375 66.847656 304.707031 C 63.070312 304.667969 62.945312 303.1875 66.507812 301.847656 C 76.421875 297.515625 86.335938 293.191406 96.246094 288.867188 C 96.375 288.804688 96.335938 288.609375 96.191406 288.609375 C 62.742188 288.730469 29.558594 287.382812 -3.847656 273.925781 C -3.96875 273.882812 -3.957031 273.707031 -3.835938 273.667969 C 13.605469 268.832031 29.304688 264.488281 44.972656 260.136719 C 45.117188 260.09375 45.097656 259.890625 44.949219 259.882812 C -21.449219 254.046875 -77.242188 227.535156 -122.300781 178.777344 C -122.390625 178.679688 -122.300781 178.523438 -122.171875 178.550781 C -83.042969 186.929688 -44.226562 195.242188 -5.40625 203.546875 C -1.105469 204.519531 -0.300781 201.804688 -4.613281 200.527344 C -10.984375 198.035156 -17.378906 195.601562 -23.722656 193.046875 C -67.554688 175.453125 -106.933594 151.554688 -136.074219 113.304688 C -153.652344 90.230469 -165.082031 64.375 -171.222656 33.425781 C -171.25 33.296875 -171.085938 33.214844 -170.992188 33.3125 C -92.265625 115.5625 6.199219 152.335938 110.542969 176.019531 C 114.867188 177.007812 117.011719 181.953125 114.664062 185.71875 C 113.210938 188.054688 112.222656 190.1875 111.546875 192.007812 C 110.246094 195.507812 110.429688 198.621094 111.300781 201.039062 C 111.316406 201.085938 111.308594 201.128906 111.28125 201.164062 C 108.875 204.019531 106.585938 208.035156 106.613281 212.023438 C 106.644531 218.316406 111.585938 225.753906 118.355469 229.699219 C 120.6875 231.058594 123.589844 230.925781 125.785156 229.359375 C 127.980469 227.808594 129.0625 225.101562 128.539062 222.464844 C 127.863281 218.988281 132.679688 214.75 134.875 213.84375 C 146.035156 209.199219 163.371094 213.425781 165.996094 241.71875 C 166.128906 243.128906 166.945312 239.046875 167.078125 237.636719 C 168.3125 225.070312 164.789062 215.664062 157.984375 210.789062 C 151.171875 205.914062 139.613281 207.035156 135.148438 208.800781 C 130.726562 210.542969 122.445312 217.632812 123.839844 225.921875 C 123.859375 226.035156 123.738281 226.117188 123.640625 226.0625 C 118.597656 223.011719 115.007812 217.34375 114.988281 213.625 C 114.96875 209.847656 119.742188 204.9375 120.496094 204.5625 C 121.257812 204.195312 122.929688 204.652344 126.113281 204.363281 C 129.265625 204.0625 133.578125 202.734375 135.878906 200.523438 C 135.90625 200.496094 135.949219 200.480469 135.992188 200.488281 C 136.289062 200.574219 137.699219 200.824219 141.582031 199.78125 C 146.019531 198.597656 150.875 194.402344 149.695312 192.558594 C 148.523438 190.703125 149.964844 189.277344 150.730469 188.617188 C 151.507812 187.960938 153.589844 187.382812 160.828125 185.523438 C 167.878906 183.714844 183.015625 182.082031 194.1875 183.191406 C 194.335938 183.207031 194.390625 182.996094 194.25 182.9375 C 192.65625 182.3125 188.539062 180.917969 180.640625 179.617188 C 170.015625 177.867188 159.308594 180.855469 155.726562 182.003906 C 152.144531 183.152344 138.613281 188.632812 136.796875 196.085938 C 136.792969 196.109375 136.777344 196.132812 136.757812 196.140625 C 135.195312 197.238281 124.027344 202.148438 120.40625 200.878906 C 120.386719 200.875 120.371094 200.863281 120.355469 200.847656 C 120.144531 200.621094 118.398438 198.632812 119.796875 194.851562 C 121.292969 190.84375 125.066406 183.742188 135.066406 176.5 C 145.074219 169.25 148.421875 169.097656 160.863281 168.171875 C 167.445312 167.6875 178.542969 169.980469 190.476562 174.324219 C 204.0625 179.261719 228.550781 200.90625 227.777344 196.921875 C 226.414062 189.855469 230.9375 182.9375 238 181.535156 C 253.953125 178.359375 270.175781 175.058594 286.292969 171.316406 C 364.113281 153.265625 437.28125 124.566406 500.460938 74.25 C 515.378906 62.371094 529.21875 49.132812 545.335938 34.921875 C 545.425781 34.839844 545.585938 34.929688 545.550781 35.058594 C 524.699219 126.214844 460.363281 170.84375 380.878906 201.296875 C 380.726562 201.359375 380.785156 201.570312 380.945312 201.546875 C 393.429688 199.773438 405.988281 198.335938 418.382812 196.054688 C 431.757812 193.582031 445.027344 190.464844 458.253906 187.234375 " fill-opacity="1" fill-rule="nonzero"/></g><g clip-path="url(#22834c8e26)"><path fill="#fafcfd" d="M 106.710938 87.5625 L 113.777344 103.449219 C 114.046875 104.058594 114.476562 104.589844 115.015625 104.980469 C 115.558594 105.375 116.191406 105.617188 116.855469 105.6875 L 134.148438 107.496094 L 121.222656 119.128906 C 120.726562 119.574219 120.355469 120.144531 120.148438 120.78125 C 119.945312 121.414062 119.90625 122.09375 120.046875 122.746094 L 123.667969 139.753906 L 108.613281 131.054688 C 108.035156 130.71875 107.378906 130.542969 106.710938 130.542969 C 106.042969 130.542969 105.386719 130.71875 104.808594 131.054688 L 89.75 139.753906 L 93.371094 122.746094 C 93.511719 122.09375 93.476562 121.414062 93.269531 120.78125 C 93.0625 120.144531 92.695312 119.574219 92.195312 119.128906 L 79.269531 107.496094 L 96.566406 105.6875 C 97.230469 105.617188 97.863281 105.375 98.402344 104.980469 C 98.945312 104.589844 99.371094 104.058594 99.644531 103.449219 Z M 106.710938 87.5625 " fill-opacity="1" fill-rule="evenodd"/></g><g clip-path="url(#30d44069ba)"><path fill="#fafcfd" d="M 187.027344 35.359375 L 194.09375 51.25 C 194.363281 51.859375 194.792969 52.386719 195.332031 52.78125 C 195.871094 53.171875 196.507812 53.417969 197.171875 53.484375 L 214.464844 55.296875 L 201.539062 66.929688 C 201.042969 67.375 200.671875 67.945312 200.464844 68.578125 C 200.257812 69.214844 200.222656 69.894531 200.363281 70.546875 L 203.984375 87.554688 L 188.929688 78.855469 C 188.351562 78.519531 187.695312 78.34375 187.027344 78.34375 C 186.359375 78.34375 185.703125 78.519531 185.125 78.855469 L 170.066406 87.554688 L 173.6875 70.546875 C 173.828125 69.894531 173.792969 69.214844 173.585938 68.578125 C 173.378906 67.945312 173.011719 67.375 172.511719 66.929688 L 159.585938 55.296875 L 176.882812 53.484375 C 177.546875 53.417969 178.179688 53.171875 178.71875 52.78125 C 179.261719 52.386719 179.6875 51.859375 179.960938 51.25 Z M 187.027344 35.359375 " fill-opacity="1" fill-rule="evenodd"/></g><g clip-path="url(#6387f99812)"><path fill="#fafcfd" d="M 268.273438 87.5625 L 275.339844 103.449219 C 275.613281 104.058594 276.039062 104.589844 276.582031 104.980469 C 277.121094 105.375 277.753906 105.617188 278.417969 105.6875 L 295.714844 107.496094 L 282.789062 119.128906 C 282.289062 119.574219 281.921875 120.144531 281.714844 120.78125 C 281.507812 121.414062 281.472656 122.09375 281.613281 122.746094 L 285.234375 139.753906 L 270.175781 131.054688 C 269.597656 130.71875 268.941406 130.542969 268.273438 130.542969 C 267.605469 130.542969 266.949219 130.71875 266.371094 131.054688 L 251.316406 139.753906 L 254.9375 122.746094 C 255.078125 122.09375 255.042969 121.414062 254.835938 120.78125 C 254.628906 120.144531 254.257812 119.574219 253.761719 119.128906 L 240.835938 107.496094 L 258.128906 105.6875 C 258.792969 105.617188 259.429688 105.375 259.96875 104.980469 C 260.507812 104.589844 260.9375 104.058594 261.207031 103.449219 Z M 268.273438 87.5625 " fill-opacity="1" fill-rule="evenodd"/></g><g fill="#fafcfd" fill-opacity="1"><g transform="translate(69.886633, 339.372023)"><g><path d="M 38.199219 -18.164062 C 38.199219 -30.519531 28.851562 -36.664062 19.566406 -36.664062 C 10.152344 -36.664062 0.867188 -30.519531 0.867188 -18.164062 C 0.867188 -5.808594 10.152344 0.402344 19.5 0.402344 C 26.980469 0.402344 34.394531 -3.539062 37.132812 -11.417969 L 25.710938 -11.417969 C 24.175781 -9.75 21.972656 -8.949219 19.632812 -8.949219 C 16.429688 -9.015625 13.15625 -10.683594 11.886719 -14.023438 L 37.800781 -14.023438 C 38.066406 -15.359375 38.199219 -16.695312 38.199219 -18.164062 Z M 26.714844 -22.238281 L 12.289062 -22.238281 C 13.355469 -25.777344 16.226562 -27.515625 19.367188 -27.515625 C 22.773438 -27.515625 25.710938 -25.84375 26.714844 -22.238281 Z M 26.714844 -22.238281 "/></g></g></g><g fill="#fafcfd" fill-opacity="1"><g transform="translate(112.624515, 339.372023)"><g><path d="M 1.46875 -44.078125 C 1.46875 -40.136719 4.675781 -38.199219 7.878906 -38.199219 C 10.953125 -38.199219 14.089844 -40.136719 14.089844 -44.078125 C 14.089844 -48.21875 10.886719 -50.222656 7.679688 -50.222656 C 4.609375 -50.222656 1.46875 -48.152344 1.46875 -44.078125 Z M 2.472656 -36.128906 L 13.15625 -36.128906 L 13.15625 0 L 2.472656 0 Z M 2.472656 -36.128906 "/></g></g></g><g fill="#fafcfd" fill-opacity="1"><g transform="translate(130.520997, 339.372023)"><g><path d="M 24.042969 0.0664062 L 23.707031 -8.613281 C 22.773438 -8.414062 21.703125 -8.28125 20.703125 -8.28125 C 18.164062 -8.28125 15.828125 -9.28125 15.828125 -12.488281 L 15.828125 -26.714844 L 23.375 -26.714844 L 23.375 -35.730469 L 15.828125 -35.730469 L 15.828125 -43.542969 L 5.34375 -42.609375 L 5.34375 -35.730469 L 0.601562 -35.730469 L 0.601562 -26.714844 L 5.34375 -26.714844 L 5.34375 -12.488281 C 5.34375 -3.140625 10.152344 0.601562 18.097656 0.601562 C 19.902344 0.601562 21.90625 0.402344 24.042969 0.0664062 Z M 24.042969 0.0664062 "/></g></g></g><g fill="#fafcfd" fill-opacity="1"><g transform="translate(158.233849, 339.372023)"><g><path d="M 1.335938 -24.507812 C 1.335938 -16.5625 8.414062 -13.957031 15.226562 -13.355469 C 16.960938 -13.222656 20.96875 -13.558594 20.96875 -10.953125 C 20.96875 -9.75 19.234375 -8.75 16.628906 -8.75 C 14.15625 -8.75 11.417969 -9.683594 11.351562 -12.15625 L 0.800781 -12.15625 C 0.933594 -2.9375 7.480469 0.933594 16.09375 0.933594 C 24.109375 0.933594 31.523438 -2.136719 31.523438 -11.21875 C 31.523438 -19.769531 23.839844 -22.972656 16.296875 -23.171875 C 14.757812 -23.242188 11.953125 -23.308594 11.953125 -25.175781 C 11.953125 -27.113281 14.089844 -27.648438 15.628906 -27.648438 C 17.832031 -27.648438 20.636719 -27.449219 20.703125 -24.644531 L 30.785156 -24.644531 C 30.71875 -33.058594 23.976562 -36.996094 16.226562 -36.996094 C 8.148438 -36.996094 1.335938 -33.257812 1.335938 -24.507812 Z M 1.335938 -24.507812 "/></g></g></g><g fill="#fafcfd" fill-opacity="1"><g transform="translate(192.62449, 339.372023)"><g><path d="M 18.433594 -36.730469 C 6.679688 -36.730469 0.933594 -28.449219 0.933594 -18.566406 C 0.933594 -8.613281 6.878906 0.46875 18.296875 0.46875 C 21.769531 0.46875 25.3125 -0.535156 27.78125 -3.605469 L 27.78125 0 L 38.265625 0 L 38.265625 -36.128906 L 27.78125 -36.128906 L 27.78125 -32.390625 C 25.445312 -35.394531 21.972656 -36.730469 18.433594 -36.730469 Z M 19.566406 -9.617188 C 14.226562 -9.617188 11.488281 -13.957031 11.488281 -18.296875 C 11.488281 -22.707031 14.15625 -27.046875 19.566406 -27.046875 C 24.109375 -27.046875 27.78125 -23.105469 27.78125 -18.296875 C 27.78125 -13.488281 24.109375 -9.617188 19.566406 -9.617188 Z M 19.566406 -9.617188 "/></g></g></g><g fill="#fafcfd" fill-opacity="1"><g transform="translate(235.562708, 339.372023)"><g><path d="M 5.34375 -35.730469 L -0.199219 -35.730469 L -0.199219 -26.578125 L 5.210938 -26.578125 L 5.210938 0 L 15.695312 0 L 15.695312 -26.578125 L 23.308594 -26.578125 L 23.308594 -35.730469 L 15.828125 -35.730469 C 15.695312 -38.867188 17.898438 -39.800781 20.367188 -39.800781 C 21.371094 -39.800781 22.4375 -39.667969 23.375 -39.402344 L 23.707031 -47.28125 C 21.90625 -47.683594 20.035156 -47.882812 18.230469 -47.882812 C 11.152344 -47.882812 4.742188 -44.679688 5.34375 -35.730469 Z M 5.34375 -35.730469 "/></g></g></g><g fill="#fafcfd" fill-opacity="1"><g transform="translate(262.340659, 339.372023)"><g><path d="M 38.199219 -18.164062 C 38.199219 -30.519531 28.851562 -36.664062 19.566406 -36.664062 C 10.152344 -36.664062 0.867188 -30.519531 0.867188 -18.164062 C 0.867188 -5.808594 10.152344 0.402344 19.5 0.402344 C 26.980469 0.402344 34.394531 -3.539062 37.132812 -11.417969 L 25.710938 -11.417969 C 24.175781 -9.75 21.972656 -8.949219 19.632812 -8.949219 C 16.429688 -9.015625 13.15625 -10.683594 11.886719 -14.023438 L 37.800781 -14.023438 C 38.066406 -15.359375 38.199219 -16.695312 38.199219 -18.164062 Z M 26.714844 -22.238281 L 12.289062 -22.238281 C 13.355469 -25.777344 16.226562 -27.515625 19.367188 -27.515625 C 22.773438 -27.515625 25.710938 -25.84375 26.714844 -22.238281 Z M 26.714844 -22.238281 "/></g></g></g></svg>